<svg width="14" height="9" viewBox="0 0 14 9" fill="none" xmlns="http://www.w3.org/2000/svg">
<path d="M2.196 9H4.428V0.504H2.82C2.748 0.752 2.656 0.964 2.544 1.14C2.432 1.308 2.288 1.444 2.112 1.548C1.936 1.644 1.724 1.716 1.476 1.764C1.228 1.804 0.932 1.824 0.588 1.824V3.216H2.196V9ZM8.03438 3.384H10.1224V3.024C10.1224 2.784 10.1384 2.592 10.1704 2.448C10.2104 2.296 10.2584 2.18 10.3144 2.1C10.3784 2.02 10.4464 1.968 10.5184 1.944C10.5904 1.912 10.6664 1.896 10.7464 1.896C10.9224 1.896 11.0624 1.964 11.1664 2.1C11.2704 2.236 11.3224 2.484 11.3224 2.844C11.3224 3.164 11.2744 3.424 11.1784 3.624C11.0904 3.816 10.9384 4.02 10.7224 4.236L9.23438 5.748C8.74638 6.252 8.41038 6.772 8.22638 7.308C8.05038 7.836 7.96238 8.4 7.96238 9H13.5544V7.32H10.6264C10.6664 7.192 10.7424 7.068 10.8544 6.948C10.9744 6.828 11.0824 6.72 11.1784 6.624L12.4984 5.34C12.8184 5.02 13.0744 4.664 13.2664 4.272C13.4584 3.88 13.5544 3.396 13.5544 2.82C13.5544 2.5 13.5144 2.2 13.4344 1.92C13.3624 1.64 13.2224 1.396 13.0144 1.188C12.8144 0.972 12.5384 0.804 12.1864 0.684C11.8344 0.564 11.3784 0.504 10.8184 0.504C10.2344 0.504 9.76238 0.572 9.40238 0.707999C9.04238 0.844 8.76238 1.04 8.56238 1.296C8.36238 1.544 8.22638 1.848 8.15438 2.208C8.08238 2.56 8.04238 2.952 8.03438 3.384Z" fill="#B3B3B3"/>
</svg>
