<svg width="23" height="22" viewBox="0 0 23 22" fill="none" xmlns="http://www.w3.org/2000/svg">
<mask id="mask0_2_190" style="mask-type:alpha" maskUnits="userSpaceOnUse" x="0" y="0" width="23" height="22">
<path fill-rule="evenodd" clip-rule="evenodd" d="M11.5 1C5.97746 1 1.45901 5.5 1.45901 11C1.45901 16.5 5.97746 21 11.5 21C17.0225 21 21.541 16.5 21.541 11C21.541 5.5 17.0225 1 11.5 1V1ZM15.7172 15.2L10.4959 12V6H12.0021V11.2L16.5205 13.9L15.7172 15.2V15.2Z" fill="white"/>
<path d="M10.4959 12H9.9959V12.28L10.2346 12.4263L10.4959 12ZM10.4959 6V5.5H9.9959V6H10.4959ZM12.0021 6H12.5021V5.5H12.0021V6ZM12.0021 11.2H11.5021V11.4837L11.7456 11.6292L12.0021 11.2ZM16.5205 13.9L16.9458 14.1628L17.2126 13.7311L16.777 13.4708L16.5205 13.9ZM11.5 0.5C5.70325 0.5 0.959015 5.22193 0.959015 11H1.95901C1.95901 5.77807 6.25167 1.5 11.5 1.5V0.5ZM0.959015 11C0.959015 16.7781 5.70325 21.5 11.5 21.5V20.5C6.25167 20.5 1.95901 16.2219 1.95901 11H0.959015ZM11.5 21.5C17.2968 21.5 22.041 16.7781 22.041 11H21.041C21.041 16.2219 16.7483 20.5 11.5 20.5V21.5ZM22.041 11C22.041 5.22193 17.2968 0.5 11.5 0.5V1.5C16.7483 1.5 21.041 5.77807 21.041 11H22.041ZM15.9785 14.7737L10.7572 11.5737L10.2346 12.4263L15.4559 15.6263L15.9785 14.7737ZM10.9959 12V6H9.9959V12H10.9959ZM10.4959 6.5H12.0021V5.5H10.4959V6.5ZM11.5021 6V11.2H12.5021V6H11.5021ZM11.7456 11.6292L16.264 14.3292L16.777 13.4708L12.2585 10.7708L11.7456 11.6292ZM16.0951 13.6372L15.2919 14.9372L16.1426 15.4628L16.9458 14.1628L16.0951 13.6372Z" fill="white"/>
</mask>
<g mask="url(#mask0_2_190)">
<rect x="-1.55328" y="-2" width="26.1066" height="26" fill="white" fill-opacity="0.5"/>
</g>
</svg>
